<svg xmlns="http://www.w3.org/2000/svg" xmlns:xlink="http://www.w3.org/1999/xlink" width="500" zoomAndPan="magnify" viewBox="0 0 375 374.999991" height="500" preserveAspectRatio="xMidYMid meet" version="1.0"><defs><clipPath id="1899d0beee"><path d="M 127 38.042969 L 247.71875 38.042969 L 247.71875 337 L 127 337 Z M 127 38.042969 " clip-rule="nonzero"/></clipPath></defs><g clip-path="url(#1899d0beee)"><path fill="#373535" d="M 187.476562 38.089844 C 188.296875 38.042969 189.449219 38.089844 190.773438 38.40625 C 195.855469 39.613281 198.382812 43.867188 198.863281 44.710938 C 200.164062 46.984375 200.40625 49.0625 200.648438 51.019531 C 200.960938 53.699219 200.71875 55.949219 200.453125 57.445312 C 200.503906 57.347656 200.839844 56.792969 201.394531 56.722656 C 202.113281 56.625 202.691406 57.324219 202.910156 57.832031 C 203.054688 58.171875 203.101562 58.558594 202.910156 59.476562 C 202.667969 60.660156 202.429688 61.070312 201.898438 62.59375 C 201.417969 63.996094 201.367188 64.429688 200.816406 64.914062 C 200.597656 65.105469 200.117188 65.539062 199.492188 65.46875 C 199.179688 65.421875 198.9375 65.273438 198.792969 65.152344 C 198.480469 66.699219 198.214844 68.464844 198.09375 70.421875 C 197.902344 73.320312 198.070312 75.90625 198.359375 78.082031 C 199.035156 78.6875 199.972656 79.484375 201.199219 80.355469 C 202.980469 81.609375 205.148438 82.792969 208.398438 84.003906 C 213.429688 85.886719 214.082031 85.210938 217.1875 86.46875 C 218.558594 87.023438 222.507812 88.835938 225.46875 92.703125 C 229.777344 98.355469 229.371094 104.976562 229.175781 108.261719 C 229.054688 110.125 228.792969 111.644531 228.574219 112.636719 C 229.082031 115.222656 229.539062 117.929688 229.945312 120.730469 C 230.5 124.476562 230.910156 128.054688 231.222656 131.507812 C 231.945312 133.371094 232.8125 135.570312 233.75 138.035156 C 235.675781 143.035156 235.988281 144.003906 236.277344 145.378906 C 236.664062 147.214844 236.761719 148.933594 236.953125 152.386719 C 237.242188 157.726562 236.90625 157.511719 237.21875 160.699219 C 237.339844 161.933594 237.433594 162.34375 238.664062 169.421875 C 239.023438 171.550781 239.335938 173.289062 239.503906 174.328125 C 240.539062 174.980469 241.457031 175.585938 242.203125 176.09375 C 244.394531 177.566406 244.851562 178 245.234375 178.53125 C 245.621094 179.089844 245.886719 179.667969 246.03125 180.222656 C 246.199219 180.851562 246.414062 181.457031 246.679688 182.0625 C 246.726562 182.15625 246.777344 182.277344 246.824219 182.398438 C 247.015625 182.90625 247.066406 183.390625 247.089844 183.824219 C 247.113281 184.378906 247.234375 184.9375 247.402344 185.492188 C 247.425781 185.539062 247.425781 185.589844 247.449219 185.660156 C 247.617188 186.3125 247.523438 187.28125 246.945312 187.617188 C 246.222656 188.03125 245.113281 187.304688 244.609375 186.820312 C 243.261719 185.539062 243.597656 183.488281 243.671875 183.148438 C 243.550781 183.027344 243.40625 182.90625 243.285156 182.785156 C 243.261719 183.148438 243.238281 183.605469 243.238281 184.164062 C 243.238281 184.742188 243.261719 186.386719 243.597656 188.34375 C 243.863281 189.816406 244.273438 191.050781 245.113281 193.539062 C 245.667969 195.183594 245.933594 196.921875 246.703125 198.492188 C 246.847656 198.78125 247.304688 199.699219 247.136719 200.8125 C 247.089844 201.175781 246.96875 201.898438 246.4375 202.164062 C 246.175781 202.308594 245.835938 202.308594 245.476562 202.191406 C 244.898438 201.996094 244.441406 201.539062 244.25 200.980469 C 243.839844 199.847656 243.40625 198.6875 242.925781 197.527344 C 241.9375 195.035156 240.902344 192.691406 239.84375 190.46875 C 239.480469 190.566406 239.601562 190.542969 239.242188 190.640625 C 239.457031 191.871094 239.671875 193.128906 239.867188 194.433594 C 240.203125 196.703125 240.492188 198.925781 240.710938 201.078125 C 240.734375 201.996094 240.804688 202.722656 240.828125 203.230469 C 240.878906 203.90625 240.925781 204.316406 240.710938 204.800781 C 240.613281 204.96875 240.371094 205.476562 239.890625 205.597656 C 239.242188 205.765625 238.566406 205.136719 238.277344 204.703125 C 238.0625 204.386719 237.988281 204.074219 237.964844 203.882812 C 237.84375 202.769531 237.722656 201.632812 237.554688 200.472656 C 237.097656 197.261719 236.496094 194.265625 235.773438 191.507812 C 235.460938 191.535156 235.558594 191.535156 235.242188 191.558594 C 235.195312 193.054688 235.148438 194.601562 235.148438 196.171875 C 235.125 198.757812 235.195312 201.246094 235.316406 203.640625 C 235.292969 203.855469 235.21875 204.242188 234.90625 204.484375 C 234.738281 204.628906 234.546875 204.726562 234.304688 204.75 C 233.414062 204.921875 232.59375 204.242188 232.523438 203.375 C 232.1875 199.289062 231.824219 195.230469 231.488281 191.148438 C 231.03125 191.121094 231.175781 191.148438 230.742188 191.121094 C 230.453125 192.910156 230.042969 194.84375 229.441406 196.875 C 229.273438 197.429688 229.105469 197.984375 228.9375 198.492188 C 228.792969 198.925781 228.359375 199.191406 227.902344 199.167969 L 227.875 199.167969 C 227.296875 199.121094 226.890625 198.589844 226.984375 198.035156 C 227.585938 194.699219 227.613281 192.015625 227.515625 190.082031 C 227.394531 187.933594 227.105469 186.3125 227.226562 183.511719 C 227.324219 181.214844 227.660156 179.332031 227.949219 178.074219 C 227.273438 175.464844 226.117188 171.40625 224.242188 166.523438 C 222.050781 160.84375 220.679688 158.839844 219.257812 154.539062 C 218.222656 151.421875 217.019531 146.707031 216.800781 140.5 C 215.8125 136.125 214.828125 131.75 213.839844 127.351562 C 213.71875 128.535156 213.503906 130.324219 212.996094 132.5 C 212.058594 136.558594 211.289062 137.066406 210.804688 140.328125 C 210.375 143.324219 210.589844 145.863281 210.710938 147.023438 C 210.902344 148.59375 211.070312 148.882812 211.3125 150.355469 C 211.554688 152.023438 211.746094 154.488281 211.3125 157.605469 C 212.179688 160.917969 212.515625 163.625 212.660156 165.53125 C 212.78125 167.078125 212.734375 167.753906 212.925781 169.6875 C 213.214844 172.878906 213.671875 175.222656 213.863281 176.140625 C 214.851562 181.3125 215.574219 188.367188 215.886719 191.316406 C 216.96875 201.730469 215.742188 210.308594 215.117188 214.5625 C 214.441406 219.152344 213.214844 225.242188 210.902344 232.175781 C 210.566406 234.253906 210.203125 237.011719 209.964844 240.25 C 209.796875 242.617188 209.507812 246.605469 209.796875 251.339844 C 210.132812 256.777344 210.78125 256.4375 211.144531 261.296875 C 211.648438 268.011719 210.734375 273.449219 210.132812 276.953125 C 210.035156 277.535156 209.339844 280.554688 207.941406 286.570312 C 205.824219 295.707031 205.582031 296.71875 205.246094 298.796875 C 204.8125 301.503906 204.355469 305.515625 204.402344 310.542969 C 204.523438 311.050781 204.617188 311.726562 204.617188 312.5 C 204.617188 312.691406 204.617188 312.863281 204.59375 313.054688 C 204.472656 314.648438 204.523438 316.269531 204.8125 317.839844 C 204.835938 318.007812 204.882812 318.152344 204.90625 318.324219 C 205.339844 320.449219 205.535156 321.511719 206.085938 322.816406 C 206.425781 323.589844 207.097656 324.726562 208.496094 326.972656 C 209.746094 329.027344 209.890625 329.148438 210.179688 329.875 C 210.566406 330.839844 211.167969 332.410156 210.613281 334.152344 C 210.519531 334.464844 210.398438 334.730469 210.253906 334.972656 C 210.085938 335.285156 209.722656 335.503906 209.363281 335.503906 L 208.664062 335.503906 C 208.132812 335.988281 207.292969 336.277344 206.714844 335.988281 C 206.402344 336.15625 206.015625 336.203125 205.679688 336.109375 C 205.460938 336.058594 205.246094 336.011719 205.050781 335.964844 C 204.257812 336.375 203.320312 336.398438 202.5 336.011719 L 202.308594 335.914062 C 201.828125 336.496094 201.34375 336.710938 201.007812 336.808594 C 199.347656 337.292969 197.082031 335.988281 195.519531 333.425781 L 195.496094 333.402344 C 194.339844 331.78125 193.710938 329.898438 193.664062 327.941406 L 193.617188 326.152344 C 193.59375 324.992188 192.964844 323.953125 191.980469 323.324219 C 191.714844 323.15625 191.472656 322.960938 191.207031 322.722656 C 190.917969 322.457031 189.859375 321.414062 189.691406 319.917969 C 189.59375 318.976562 190.003906 318.007812 190.824219 316.050781 L 190.824219 316.027344 C 191.328125 314.867188 191.570312 313.609375 191.570312 312.355469 L 191.570312 310.734375 C 191.570312 309.792969 191.714844 308.875 192.003906 308.003906 C 192.386719 306.820312 192.773438 305.324219 192.964844 303.582031 C 193.160156 301.699219 193.0625 300.25 192.964844 298.941406 C 192.582031 293.941406 192.386719 291.453125 192.027344 288.84375 C 190.871094 280.746094 190.367188 281.011719 190.003906 276.421875 C 189.910156 275.285156 189.667969 271.78125 190.003906 267.191406 C 190.316406 262.9375 190.992188 259.3125 191.691406 256.460938 C 191.59375 255.300781 191.472656 253.609375 191.402344 252.453125 C 190.992188 251.4375 190.511719 250.15625 190.078125 248.65625 C 189.738281 247.496094 188.875 244.308594 188.558594 238.507812 C 188.414062 235.875 188.585938 236.40625 188.558594 228.238281 C 188.535156 222.824219 189.234375 221.011719 189.1875 220.214844 C 188.992188 216.277344 188.777344 215.84375 188.558594 212.265625 C 188.367188 209.34375 188.414062 208.230469 188.441406 198.371094 C 188.441406 196.488281 188.703125 193.5625 188.703125 189.9375 C 187.789062 190.277344 186.898438 190.277344 185.984375 189.9375 C 185.984375 193.585938 186.226562 196.511719 186.25 198.371094 C 186.273438 208.230469 186.320312 209.34375 186.128906 212.265625 C 185.886719 215.867188 185.671875 216.300781 185.503906 220.214844 C 185.453125 221.011719 186.152344 222.824219 186.128906 228.238281 C 186.105469 236.40625 186.273438 235.898438 186.128906 238.507812 C 185.792969 244.332031 184.949219 247.496094 184.613281 248.65625 C 184.179688 250.15625 183.695312 251.4375 183.289062 252.453125 C 183.191406 253.609375 183.070312 255.300781 183 256.460938 C 183.695312 259.3125 184.371094 262.960938 184.683594 267.191406 C 185.019531 271.78125 184.78125 275.285156 184.683594 276.421875 C 184.324219 281.011719 183.792969 280.746094 182.660156 288.84375 C 182.300781 291.453125 182.109375 293.941406 181.722656 298.941406 C 181.625 300.273438 181.53125 301.699219 181.722656 303.582031 C 181.914062 305.324219 182.300781 306.820312 182.6875 308.003906 C 182.976562 308.898438 183.117188 309.816406 183.117188 310.734375 L 183.117188 312.355469 C 183.117188 313.609375 183.382812 314.867188 183.867188 316.027344 L 183.867188 316.050781 C 184.683594 318.007812 185.117188 318.976562 184.996094 319.917969 C 184.828125 321.441406 183.769531 322.457031 183.480469 322.722656 C 183.214844 322.960938 182.976562 323.15625 182.710938 323.324219 C 181.722656 323.976562 181.097656 325.015625 181.074219 326.152344 L 181.023438 327.941406 C 180.976562 329.898438 180.351562 331.78125 179.195312 333.402344 L 179.171875 333.425781 C 177.628906 335.988281 175.34375 337.292969 173.679688 336.808594 C 173.34375 336.710938 172.863281 336.46875 172.382812 335.914062 L 172.1875 336.011719 C 171.394531 336.398438 170.429688 336.375 169.636719 335.964844 C 169.417969 336.011719 169.203125 336.058594 169.011719 336.109375 C 168.648438 336.203125 168.289062 336.15625 167.976562 335.988281 C 167.398438 336.277344 166.554688 335.988281 166.023438 335.503906 L 165.328125 335.503906 C 164.941406 335.503906 164.605469 335.308594 164.4375 334.972656 C 164.316406 334.730469 164.195312 334.464844 164.074219 334.152344 C 163.519531 332.410156 164.125 330.839844 164.507812 329.875 C 164.796875 329.148438 164.941406 329.027344 166.195312 326.972656 C 167.566406 324.726562 168.265625 323.589844 168.601562 322.816406 C 169.15625 321.511719 169.347656 320.449219 169.78125 318.324219 C 169.804688 318.152344 169.851562 317.984375 169.878906 317.839844 C 170.167969 316.269531 170.214844 314.648438 170.09375 313.054688 C 170.070312 312.886719 170.070312 312.691406 170.070312 312.5 C 170.070312 311.726562 170.167969 311.050781 170.285156 310.542969 C 170.335938 305.515625 169.878906 301.503906 169.445312 298.796875 C 169.105469 296.71875 168.867188 295.707031 166.746094 286.570312 C 165.351562 280.53125 164.652344 277.507812 164.554688 276.953125 C 163.953125 273.449219 163.039062 268.011719 163.546875 261.296875 C 163.90625 256.4375 164.554688 256.777344 164.894531 251.339844 C 165.183594 246.605469 164.894531 242.617188 164.726562 240.25 C 164.484375 237.011719 164.125 234.253906 163.785156 232.175781 C 161.449219 225.21875 160.246094 219.152344 159.574219 214.5625 C 158.945312 210.308594 157.742188 201.730469 158.800781 191.316406 C 159.117188 188.367188 159.835938 181.3125 160.824219 176.140625 C 160.992188 175.222656 161.476562 172.878906 161.761719 169.6875 C 161.933594 167.753906 161.90625 167.078125 162.027344 165.53125 C 162.171875 163.648438 162.511719 160.941406 163.375 157.605469 C 162.945312 154.464844 163.136719 152.023438 163.375 150.355469 C 163.59375 148.859375 163.785156 148.570312 163.980469 147.023438 C 164.125 145.863281 164.339844 143.351562 163.882812 140.328125 C 163.402344 137.066406 162.628906 136.558594 161.691406 132.5 C 161.1875 130.347656 160.96875 128.535156 160.847656 127.351562 C 159.863281 131.726562 158.875 136.101562 157.886719 140.5 C 157.671875 146.707031 156.46875 151.394531 155.433594 154.539062 C 154.011719 158.839844 152.664062 160.84375 150.449219 166.523438 C 148.570312 171.378906 147.414062 175.464844 146.738281 178.074219 C 147.003906 179.332031 147.34375 181.191406 147.460938 183.511719 C 147.582031 186.3125 147.292969 187.933594 147.171875 190.082031 C 147.078125 192.015625 147.101562 194.699219 147.703125 198.035156 C 147.800781 198.589844 147.390625 199.121094 146.8125 199.167969 L 146.789062 199.167969 C 146.332031 199.21875 145.898438 198.925781 145.753906 198.492188 C 145.585938 197.960938 145.414062 197.429688 145.246094 196.875 C 144.644531 194.84375 144.234375 192.910156 143.949219 191.121094 C 143.488281 191.148438 143.632812 191.121094 143.199219 191.148438 C 142.863281 195.230469 142.503906 199.289062 142.164062 203.375 C 142.09375 204.242188 141.273438 204.921875 140.382812 204.75 C 140.144531 204.703125 139.949219 204.605469 139.78125 204.484375 C 139.46875 204.21875 139.398438 203.855469 139.371094 203.640625 C 139.492188 201.246094 139.542969 198.757812 139.542969 196.171875 C 139.542969 194.601562 139.492188 193.054688 139.445312 191.558594 C 139.132812 191.535156 139.226562 191.535156 138.914062 191.507812 C 138.21875 194.265625 137.589844 197.261719 137.132812 200.472656 C 136.964844 201.632812 136.84375 202.769531 136.722656 203.882812 C 136.699219 204.074219 136.628906 204.386719 136.410156 204.703125 C 136.121094 205.136719 135.449219 205.765625 134.796875 205.597656 C 134.316406 205.476562 134.050781 204.96875 133.980469 204.800781 C 133.738281 204.339844 133.789062 203.929688 133.859375 203.230469 C 133.90625 202.746094 133.957031 202.019531 133.980469 201.078125 C 134.195312 198.925781 134.484375 196.730469 134.824219 194.433594 C 135.015625 193.152344 135.230469 191.894531 135.449219 190.640625 C 135.085938 190.542969 135.207031 190.566406 134.847656 190.46875 C 133.789062 192.691406 132.777344 195.035156 131.765625 197.527344 C 131.308594 198.6875 130.851562 199.847656 130.441406 200.980469 C 130.222656 201.539062 129.789062 202.019531 129.210938 202.191406 C 128.851562 202.308594 128.515625 202.285156 128.25 202.164062 C 127.71875 201.898438 127.601562 201.175781 127.550781 200.8125 C 127.382812 199.699219 127.863281 198.78125 127.984375 198.492188 C 128.753906 196.921875 129.019531 195.183594 129.574219 193.539062 C 130.417969 191.050781 130.824219 189.816406 131.089844 188.34375 C 131.429688 186.386719 131.453125 184.742188 131.453125 184.164062 C 131.453125 183.605469 131.429688 183.125 131.402344 182.785156 C 131.285156 182.90625 131.140625 183.027344 131.019531 183.148438 C 131.089844 183.488281 131.429688 185.539062 130.078125 186.820312 C 129.574219 187.304688 128.441406 188.03125 127.746094 187.617188 C 127.167969 187.28125 127.070312 186.3125 127.238281 185.660156 C 127.261719 185.613281 127.261719 185.539062 127.285156 185.492188 C 127.480469 184.960938 127.601562 184.40625 127.601562 183.824219 C 127.601562 183.414062 127.671875 182.929688 127.863281 182.398438 C 127.914062 182.277344 127.960938 182.183594 128.007812 182.0625 C 128.273438 181.457031 128.464844 180.851562 128.660156 180.222656 C 128.828125 179.667969 129.070312 179.089844 129.453125 178.53125 C 129.839844 177.976562 130.296875 177.566406 132.488281 176.09375 C 133.234375 175.585938 134.148438 175.003906 135.183594 174.328125 C 135.351562 173.289062 135.664062 171.574219 136.027344 169.421875 C 137.253906 162.34375 137.351562 161.933594 137.472656 160.699219 C 137.785156 157.511719 137.445312 157.726562 137.734375 152.386719 C 137.929688 148.933594 138.023438 147.214844 138.410156 145.378906 C 138.699219 144.003906 139.035156 143.035156 140.9375 138.035156 C 141.875 135.570312 142.742188 133.371094 143.464844 131.507812 C 143.777344 128.078125 144.1875 124.476562 144.742188 120.730469 C 145.152344 117.929688 145.609375 115.222656 146.113281 112.636719 C 145.898438 111.644531 145.609375 110.125 145.511719 108.261719 C 145.320312 104.976562 144.910156 98.355469 149.21875 92.703125 C 152.179688 88.835938 156.128906 87.023438 157.503906 86.46875 C 160.609375 85.1875 161.257812 85.863281 166.289062 84.003906 C 169.5625 82.792969 171.707031 81.585938 173.488281 80.355469 C 174.714844 79.507812 175.679688 78.6875 176.328125 78.082031 C 176.617188 75.929688 176.761719 73.347656 176.59375 70.421875 C 176.472656 68.488281 176.210938 66.726562 175.894531 65.152344 C 175.75 65.273438 175.511719 65.421875 175.199219 65.46875 C 174.570312 65.539062 174.066406 65.105469 173.875 64.914062 C 173.34375 64.429688 173.273438 63.996094 172.789062 62.59375 C 172.261719 61.046875 172.019531 60.660156 171.777344 59.476562 C 171.585938 58.535156 171.636719 58.171875 171.777344 57.832031 C 171.996094 57.347656 172.574219 56.625 173.296875 56.722656 C 173.875 56.792969 174.1875 57.347656 174.234375 57.445312 C 173.96875 55.949219 173.730469 53.699219 174.042969 51.019531 C 174.28125 49.0625 174.523438 47.007812 175.824219 44.710938 C 176.304688 43.867188 178.832031 39.613281 183.914062 38.40625 C 185.238281 38.089844 186.394531 38.066406 187.210938 38.089844 " fill-opacity="1" fill-rule="nonzero"/></g></svg>