<svg xmlns="http://www.w3.org/2000/svg" xmlns:xlink="http://www.w3.org/1999/xlink" width="500" zoomAndPan="magnify" viewBox="0 0 375 374.999991" height="500" preserveAspectRatio="xMidYMid meet" version="1.0"><defs><clipPath id="fcef3597dd"><path d="M 158.542969 38.59375 L 216.289062 38.59375 L 216.289062 336.738281 L 158.542969 336.738281 Z M 158.542969 38.59375 " clip-rule="nonzero"/></clipPath></defs><g clip-path="url(#fcef3597dd)"><path fill="#373535" d="M 216.285156 137.699219 C 216.230469 134.902344 215.953125 132.105469 215.757812 129.304688 C 215.757812 129.277344 215.757812 129.25 215.730469 129.222656 C 216.257812 120.347656 215.980469 111.503906 215.199219 102.296875 C 214.867188 98.269531 214.253906 94.320312 212.441406 90.65625 C 209.542969 84.777344 197.917969 78.734375 198.417969 71.765625 C 198.417969 71.707031 198.417969 71.679688 198.390625 71.625 C 198.390625 71.625 198.390625 71.625 198.390625 71.597656 C 199.085938 68.378906 200.121094 65.578125 201.539062 61.96875 C 202.542969 59.394531 203.15625 56.902344 203.128906 54.132812 C 203.101562 49.625 201.597656 44.871094 198.085938 41.875 C 193.289062 37.816406 173.804688 35.996094 174 45.652344 C 170.320312 48.789062 168.425781 54.019531 169.984375 58.777344 C 169.789062 59.171875 169.566406 59.5625 169.34375 59.925781 C 168.480469 61.378906 166.722656 63.117188 166.472656 64.851562 C 166.167969 67.285156 168.425781 67.089844 170.011719 66.417969 C 170.070312 66.699219 170.152344 66.976562 170.207031 67.257812 C 170.320312 67.902344 170.320312 68.714844 170.625 69.300781 C 170.792969 69.582031 170.960938 69.777344 171.183594 69.863281 C 170.933594 70.757812 170.933594 71.652344 171.40625 72.210938 C 170.65625 74.199219 170.207031 77.363281 171.910156 78.566406 C 173.050781 79.375 174.917969 79.433594 176.285156 79.515625 C 177.207031 79.574219 178.097656 79.546875 179.015625 79.460938 C 179.046875 81.449219 179.714844 83.15625 180.773438 84.945312 C 181.886719 86.90625 182.472656 88.863281 182.976562 90.90625 C 177.597656 100.507812 169.316406 109.800781 169.789062 120.769531 C 167.644531 122.699219 167.085938 131.40625 166.78125 133.335938 C 166.167969 137.058594 164.632812 142.796875 165.078125 147.246094 C 162.433594 160.34375 159.617188 176.855469 163.546875 190.234375 C 163.101562 193.171875 161.621094 195.886719 161.261719 198.882812 C 160.980469 201.261719 161.261719 203.945312 162.011719 206.214844 C 162.347656 207.222656 163.15625 208.734375 164.019531 208.816406 C 164.4375 209.488281 165.386719 209.515625 166.25 209.292969 C 167.085938 212.371094 167.199219 215.617188 168.230469 218.695312 C 168.871094 220.710938 169.371094 222.835938 170.042969 224.851562 C 169.289062 230.113281 170.847656 236.859375 171.601562 241.953125 C 172.242188 246.207031 172.910156 249.453125 175.113281 252.644531 C 175.003906 255.246094 175.589844 258.074219 176.175781 260.480469 C 176.816406 263.167969 177.539062 265.714844 178.933594 267.980469 C 178.515625 272.878906 179.128906 277.972656 178.683594 282.839844 C 178.292969 286.898438 176.144531 291.910156 176.980469 296.191406 C 176.84375 297.675781 177.039062 299.269531 177.148438 300.5 C 177.398438 303.214844 178.570312 305.425781 179.824219 307.695312 C 178.347656 314.828125 169.652344 316.566406 163.628906 317.769531 C 161.789062 318.132812 158.109375 318.75 158.582031 321.433594 C 158.976562 323.5625 161.984375 323.730469 163.628906 323.84375 C 165.441406 323.980469 167.367188 324.039062 169.175781 323.980469 C 170.90625 323.925781 172.382812 323.421875 173.886719 322.890625 C 171.546875 326.25 167.839844 327.648438 163.992188 329.355469 C 163.519531 329.578125 161.761719 329.71875 161.34375 330.195312 C 160.535156 331.035156 159.753906 330.8125 159.753906 332.183594 C 159.671875 337.921875 174.109375 336.800781 176.507812 336.324219 C 178.292969 335.988281 179.964844 335.371094 181.667969 334.785156 C 186.597656 333.105469 184.925781 333.359375 190.949219 334.953125 C 193.347656 335.597656 194.90625 336.410156 197.636719 334.898438 C 201.347656 332.824219 200.734375 326.921875 199.535156 322.386719 C 201.988281 321.6875 203.6875 321.433594 203.296875 317.964844 C 202.878906 314.464844 201.511719 310.886719 200.371094 307.441406 C 201.625 303.523438 204.078125 299.886719 205.304688 295.996094 C 206.308594 292.804688 205.777344 289.640625 205.277344 286.425781 C 207.367188 273.324219 208.929688 260.761719 205.945312 247.773438 C 206 240.132812 204.773438 232.632812 204.410156 224.964844 C 204.160156 220.011719 204.859375 214.890625 204.105469 209.964844 C 205.359375 203.636719 208.09375 197.566406 209.179688 191.15625 C 209.988281 186.34375 210.15625 181.390625 209.765625 176.519531 C 210.070312 173.972656 210.070312 171.339844 209.875 168.765625 C 211.773438 163.980469 212.414062 158.746094 213.722656 153.738281 C 214.835938 149.484375 216.703125 145.089844 216.203125 140.667969 C 216.316406 139.6875 216.285156 138.707031 216.285156 137.699219 " fill-opacity="1" fill-rule="nonzero"/></g></svg>