<svg xmlns="http://www.w3.org/2000/svg" xmlns:xlink="http://www.w3.org/1999/xlink" width="500" zoomAndPan="magnify" viewBox="0 0 375 374.999991" height="500" preserveAspectRatio="xMidYMid meet" version="1.0"><defs><clipPath id="07e82c0bcc"><path d="M 158.710938 38.59375 L 216.292969 38.59375 L 216.292969 336.738281 L 158.710938 336.738281 Z M 158.710938 38.59375 " clip-rule="nonzero"/></clipPath></defs><g clip-path="url(#07e82c0bcc)"><path fill="#373535" d="M 158.710938 137.699219 C 158.769531 134.902344 159.046875 132.105469 159.242188 129.304688 C 159.242188 129.277344 159.242188 129.25 159.269531 129.222656 C 158.738281 120.347656 159.019531 111.503906 159.796875 102.296875 C 160.132812 98.269531 160.746094 94.320312 162.558594 90.65625 C 165.457031 84.777344 177.082031 78.734375 176.578125 71.765625 C 176.578125 71.707031 176.578125 71.679688 176.609375 71.625 C 176.609375 71.625 176.609375 71.625 176.609375 71.597656 C 175.910156 68.378906 174.878906 65.578125 173.457031 61.96875 C 172.453125 59.394531 171.839844 56.902344 171.867188 54.132812 C 171.898438 49.625 173.402344 44.867188 176.914062 41.875 C 181.710938 37.816406 201.195312 35.996094 201 45.652344 C 204.679688 48.789062 206.574219 54.019531 205.015625 58.777344 C 205.207031 59.171875 205.433594 59.5625 205.65625 59.925781 C 206.519531 61.378906 208.273438 63.117188 208.527344 64.851562 C 208.832031 67.285156 206.574219 67.089844 204.984375 66.417969 C 204.929688 66.699219 204.847656 66.976562 204.789062 67.257812 C 204.679688 67.902344 204.679688 68.714844 204.371094 69.300781 C 204.203125 69.582031 204.039062 69.777344 203.816406 69.863281 C 204.066406 70.757812 204.066406 71.652344 203.59375 72.210938 C 204.34375 74.199219 204.789062 77.363281 203.089844 78.566406 C 201.945312 79.375 200.078125 79.433594 198.714844 79.515625 C 197.792969 79.574219 196.902344 79.546875 195.980469 79.460938 C 195.953125 81.449219 195.285156 83.15625 194.226562 84.945312 C 193.109375 86.90625 192.523438 88.863281 192.023438 90.90625 C 197.402344 100.507812 205.683594 109.800781 205.207031 120.769531 C 207.355469 122.699219 207.914062 131.40625 208.21875 133.335938 C 208.832031 137.058594 210.367188 142.796875 209.921875 147.246094 C 212.566406 160.34375 215.382812 176.855469 211.453125 190.234375 C 211.898438 193.171875 213.375 195.886719 213.738281 198.882812 C 214.015625 201.261719 213.738281 203.945312 212.988281 206.214844 C 212.652344 207.222656 211.84375 208.734375 210.980469 208.816406 C 210.558594 209.488281 209.613281 209.515625 208.75 209.292969 C 207.914062 212.371094 207.800781 215.617188 206.769531 218.695312 C 206.128906 220.710938 205.628906 222.835938 204.957031 224.851562 C 205.710938 230.113281 204.148438 236.859375 203.398438 241.953125 C 202.753906 246.207031 202.085938 249.453125 199.882812 252.644531 C 199.996094 255.246094 199.410156 258.074219 198.824219 260.480469 C 198.183594 263.167969 197.460938 265.714844 196.066406 267.980469 C 196.484375 272.878906 195.871094 277.972656 196.316406 282.839844 C 196.707031 286.898438 198.851562 291.910156 198.015625 296.191406 C 198.15625 297.675781 197.960938 299.269531 197.847656 300.5 C 197.597656 303.214844 196.425781 305.425781 195.171875 307.695312 C 196.652344 314.828125 205.347656 316.566406 211.371094 317.769531 C 213.207031 318.132812 216.890625 318.75 216.414062 321.433594 C 216.023438 323.5625 213.015625 323.730469 211.371094 323.84375 C 209.554688 323.980469 207.632812 324.039062 205.820312 323.980469 C 204.09375 323.925781 202.617188 323.421875 201.113281 322.890625 C 203.453125 326.25 207.160156 327.648438 211.007812 329.355469 C 211.480469 329.578125 213.238281 329.71875 213.65625 330.195312 C 214.464844 331.035156 215.242188 330.8125 215.242188 332.183594 C 215.328125 337.921875 200.886719 336.800781 198.492188 336.324219 C 196.707031 335.988281 195.035156 335.371094 193.332031 334.785156 C 188.398438 333.105469 190.070312 333.359375 184.050781 334.953125 C 181.652344 335.597656 180.09375 336.410156 177.359375 334.898438 C 173.652344 332.824219 174.265625 326.921875 175.464844 322.386719 C 173.011719 321.6875 171.3125 321.433594 171.703125 317.964844 C 172.121094 314.464844 173.488281 310.886719 174.628906 307.441406 C 173.375 303.523438 170.921875 299.886719 169.695312 295.996094 C 168.691406 292.804688 169.21875 289.640625 169.722656 286.425781 C 167.632812 273.324219 166.070312 260.761719 169.054688 247.773438 C 169 240.132812 170.222656 232.632812 170.585938 224.964844 C 170.835938 220.011719 170.140625 214.890625 170.894531 209.964844 C 169.640625 203.636719 166.90625 197.566406 165.820312 191.15625 C 165.011719 186.34375 164.84375 181.390625 165.234375 176.519531 C 164.929688 173.972656 164.929688 171.339844 165.125 168.765625 C 163.226562 163.980469 162.585938 158.746094 161.277344 153.738281 C 160.160156 149.484375 158.292969 145.089844 158.796875 140.667969 C 158.683594 139.6875 158.710938 138.707031 158.710938 137.699219 " fill-opacity="1" fill-rule="nonzero"/></g></svg>